<svg width="47" height="42" viewBox="0 0 47 42" fill="none" xmlns="http://www.w3.org/2000/svg">
<g clip-path="url(#clip0_787_1744)">
<path d="M2.18059 11.1324C2.47385 10.0053 3.19475 8.999 4.22522 8.27822C5.25569 7.55745 6.53466 7.16496 7.85267 7.16504H42.7577C44.0757 7.16496 45.3547 7.55745 46.3852 8.27822C47.4156 8.999 48.1365 10.0053 48.4298 11.1324L25.3052 23.5295L2.18059 11.1324ZM2.03516 14.0461V32.171L18.9147 23.0932L2.03516 14.0461ZM21.7012 24.5909L2.59073 34.8653C3.0629 35.7386 3.80812 36.4763 4.73966 36.9925C5.67121 37.5088 6.75076 37.7824 7.85267 37.7815H42.7577C43.8594 37.7817 44.9386 37.5075 45.8696 36.9908C46.8006 36.4741 47.5452 35.7361 48.0167 34.8627L28.9062 24.5883L25.3052 26.5197L21.7012 24.5909ZM31.6957 23.0958L48.5752 32.171V14.0461L31.6957 23.0958Z" fill="#004A8D"/>
</g>
<defs>
<clipPath id="clip0_787_1744">
<rect x="0.429688" y="0.429688" width="46.5401" height="40.8219" rx="16" fill="white"/>
</clipPath>
</defs>
</svg>
