<svg width="89" height="89" viewBox="0 0 89 89" fill="none" xmlns="http://www.w3.org/2000/svg">
<path d="M82.0469 29.2031H6.95312C5.84668 29.2031 4.78554 28.7636 4.00316 27.9812C3.22079 27.1988 2.78125 26.1377 2.78125 25.0312C2.78125 23.9248 3.22079 22.8637 4.00316 22.0813C4.78554 21.2989 5.84668 20.8594 6.95312 20.8594H82.0469C83.1533 20.8594 84.2145 21.2989 84.9968 22.0813C85.7792 22.8637 86.2188 23.9248 86.2188 25.0312C86.2188 26.1377 85.7792 27.1988 84.9968 27.9812C84.2145 28.7636 83.1533 29.2031 82.0469 29.2031ZM68.1406 48.6719H20.8594C19.7529 48.6719 18.6918 48.2323 17.9094 47.45C17.127 46.6676 16.6875 45.6065 16.6875 44.5C16.6875 43.3936 17.127 42.3324 17.9094 41.55C18.6918 40.7677 19.7529 40.3281 20.8594 40.3281H68.1406C69.2471 40.3281 70.3082 40.7677 71.0906 41.55C71.873 42.3324 72.3125 43.3936 72.3125 44.5C72.3125 45.6065 71.873 46.6676 71.0906 47.45C70.3082 48.2323 69.2471 48.6719 68.1406 48.6719ZM51.4531 68.1406H37.5469C36.4404 68.1406 35.3793 67.7011 34.5969 66.9187C33.8145 66.1363 33.375 65.0752 33.375 63.9688C33.375 62.8623 33.8145 61.8012 34.5969 61.0188C35.3793 60.2364 36.4404 59.7969 37.5469 59.7969H51.4531C52.5596 59.7969 53.6207 60.2364 54.4031 61.0188C55.1855 61.8012 55.625 62.8623 55.625 63.9688C55.625 65.0752 55.1855 66.1363 54.4031 66.9187C53.6207 67.7011 52.5596 68.1406 51.4531 68.1406Z" fill="#004A8D"/>
</svg>
