<svg width="47" height="41" viewBox="0 0 47 41" fill="none" xmlns="http://www.w3.org/2000/svg">
<g clip-path="url(#clip0_787_1739)">
<path d="M23.7 2.56699C25.2429 2.56699 26.7226 3.1046 27.8136 4.06155C28.9046 5.0185 29.5175 6.3164 29.5175 7.66973V17.8752H17.8825V7.66973C17.8825 6.3164 18.4954 5.0185 19.5864 4.06155C20.6774 3.1046 22.1571 2.56699 23.7 2.56699ZM32.4263 17.8752V7.66973C32.4263 5.63974 31.5069 3.69289 29.8704 2.25746C28.2339 0.822038 26.0144 0.015625 23.7 0.015625C21.3857 0.015625 19.1661 0.822038 17.5296 2.25746C15.8931 3.69289 14.9738 5.63974 14.9738 7.66973V17.8752C13.4309 17.8752 11.9512 18.4128 10.8602 19.3698C9.76916 20.3267 9.15625 21.6246 9.15625 22.978V35.7348C9.15625 37.0881 9.76916 38.386 10.8602 39.343C11.9512 40.2999 13.4309 40.8375 14.9738 40.8375H32.4263C33.9692 40.8375 35.4489 40.2999 36.5399 39.343C37.6309 38.386 38.2438 37.0881 38.2438 35.7348V22.978C38.2438 21.6246 37.6309 20.3267 36.5399 19.3698C35.4489 18.4128 33.9692 17.8752 32.4263 17.8752Z" fill="#004A8D"/>
</g>
<defs>
<clipPath id="clip0_787_1739">
<rect width="46.5401" height="40.8219" fill="white" transform="translate(0.429688 0.015625)"/>
</clipPath>
</defs>
</svg>
