<svg width="35" height="35" viewBox="0 0 35 35" fill="none" xmlns="http://www.w3.org/2000/svg">
<g clip-path="url(#clip0_787_1596)">
<path d="M25.6876 22.6283C27.8057 19.738 28.7544 16.1544 28.3439 12.5946C27.9333 9.03479 26.1938 5.76126 23.4733 3.42893C20.7528 1.09659 17.252 -0.122537 13.6713 0.0154355C10.0905 0.153408 6.69393 1.63831 4.16099 4.17307C1.62805 6.70782 0.145575 10.1055 0.0101643 13.6863C-0.125246 17.2672 1.09639 20.7671 3.43067 23.4859C5.76495 26.2047 9.03972 27.9419 12.5998 28.3499C16.1599 28.7579 19.7428 27.8067 22.6317 25.6865H22.6295C22.6936 25.774 22.7651 25.8578 22.8438 25.938L31.2657 34.3599C31.6759 34.7704 32.2323 35.0011 32.8126 35.0013C33.3929 35.0015 33.9495 34.7712 34.3599 34.361C34.7704 33.9508 35.0011 33.3944 35.0013 32.8141C35.0015 32.2338 34.7712 31.6772 34.361 31.2668L25.9392 22.8449C25.861 22.7657 25.7769 22.6947 25.6876 22.6283ZM26.252 14.2196C26.252 15.7995 25.9408 17.364 25.3361 18.8237C24.7315 20.2834 23.8453 21.6098 22.7281 22.727C21.6109 23.8442 20.2846 24.7304 18.8249 25.335C17.3652 25.9396 15.8007 26.2508 14.2207 26.2508C12.6407 26.2508 11.0763 25.9396 9.61655 25.335C8.15686 24.7304 6.83054 23.8442 5.71334 22.727C4.59613 21.6098 3.70992 20.2834 3.10529 18.8237C2.50066 17.364 2.18946 15.7995 2.18946 14.2196C2.18946 11.0287 3.45704 7.9685 5.71334 5.7122C7.96963 3.45591 11.0298 2.18833 14.2207 2.18833C17.4116 2.18833 20.4718 3.45591 22.7281 5.7122C24.9844 7.9685 26.252 11.0287 26.252 14.2196Z" fill="white"/>
</g>
<defs>
<clipPath id="clip0_787_1596">
<rect width="35" height="35" fill="white"/>
</clipPath>
</defs>
</svg>
