<svg width="100" height="100" viewBox="0 0 100 100" fill="none" xmlns="http://www.w3.org/2000/svg">
<g clip-path="url(#clip0_787_3101)">
<path d="M50 93.75C38.3968 93.75 27.2688 89.1406 19.0641 80.9359C10.8594 72.7312 6.25 61.6032 6.25 50C6.25 38.3968 10.8594 27.2688 19.0641 19.0641C27.2688 10.8594 38.3968 6.25 50 6.25C61.6032 6.25 72.7312 10.8594 80.9359 19.0641C89.1406 27.2688 93.75 38.3968 93.75 50C93.75 61.6032 89.1406 72.7312 80.9359 80.9359C72.7312 89.1406 61.6032 93.75 50 93.75ZM50 100C63.2608 100 75.9785 94.7322 85.3553 85.3553C94.7322 75.9785 100 63.2608 100 50C100 36.7392 94.7322 24.0215 85.3553 14.6447C75.9785 5.26784 63.2608 0 50 0C36.7392 0 24.0215 5.26784 14.6447 14.6447C5.26784 24.0215 0 36.7392 0 50C0 63.2608 5.26784 75.9785 14.6447 85.3553C24.0215 94.7322 36.7392 100 50 100Z" fill="#004A8D"/>
<path d="M68.5612 31.0625L68.4362 31.2L46.7299 58.8563L33.6487 45.7688C32.7601 44.9408 31.5848 44.49 30.3704 44.5115C29.1561 44.5329 27.9974 45.0248 27.1386 45.8837C26.2797 46.7425 25.7878 47.9011 25.7664 49.1155C25.7449 50.3299 26.1957 51.5052 27.0237 52.3938L43.5612 68.9375C44.0067 69.3822 44.5372 69.7327 45.1211 69.9679C45.705 70.2031 46.3302 70.3183 46.9596 70.3067C47.589 70.295 48.2095 70.1567 48.7843 69.9C49.3591 69.6433 49.8762 69.2735 50.3049 68.8125L75.255 37.625C76.1045 36.7334 76.569 35.5431 76.548 34.3117C76.527 33.0803 76.0222 31.9066 75.1428 31.0444C74.2633 30.1822 73.0799 29.7007 71.8483 29.7041C70.6167 29.7075 69.4359 30.1955 68.5612 31.0625Z" fill="#004A8D"/>
</g>
<defs>
<clipPath id="clip0_787_3101">
<rect width="100" height="100" fill="white"/>
</clipPath>
</defs>
</svg>
